<?xml version="1.0" standalone="no"?>
<!DOCTYPE svg PUBLIC "-//W3C//DTD SVG 20010904//EN"
 "http://www.w3.org/TR/2001/REC-SVG-20010904/DTD/svg10.dtd">
<svg version="1.0" xmlns="http://www.w3.org/2000/svg"
 width="480.000000pt" height="480.000000pt" viewBox="0 0 480.000000 480.000000"
 preserveAspectRatio="xMidYMid meet">
<metadata>
Created by potrace 1.14, written by Peter Selinger 2001-2017
</metadata>
<g transform="translate(0.000000,480.000000) scale(0.100000,-0.100000)"
fill="#000000" stroke="none">
<path d="M2642 4563 c-6 -2 -10 -9 -7 -14 4 -5 0 -6 -8 -3 -8 3 -18 1 -21 -5
-4 -6 -13 -8 -21 -4 -10 3 -15 -1 -15 -13 0 -12 -3 -15 -8 -8 -9 14 -42 14
-42 0 0 -6 -5 -4 -10 4 -5 8 -10 10 -10 3 0 -6 -11 -10 -25 -8 -17 1 -25 -3
-25 -14 0 -9 -3 -12 -8 -6 -9 13 -32 18 -32 7 0 -7 -22 -11 -82 -13 -10 0 -18
-5 -18 -10 0 -6 -6 -6 -18 0 -11 6 -24 6 -35 -1 -18 -10 -227 -17 -227 -8 0 3
-55 4 -122 4 -79 -1 -128 2 -137 10 -12 8 -13 8 -7 -2 6 -9 1 -12 -16 -10 -12
2 -29 7 -37 12 -10 6 -12 5 -7 -3 10 -15 -25 -11 -36 4 -5 6 -8 4 -8 -5 0 -13
-1 -13 -10 0 -8 12 -10 12 -10 1 0 -11 -3 -11 -15 -1 -12 10 -15 10 -15 -1 0
-9 -3 -10 -8 -4 -9 13 -42 13 -61 1 -11 -7 -13 -5 -7 9 5 14 4 16 -7 7 -8 -7
-17 -9 -21 -5 -4 4 -11 1 -16 -7 -6 -8 -10 -10 -10 -4 0 6 -14 11 -32 12 -17
0 -35 7 -39 14 -5 7 -9 9 -9 4 0 -5 -8 -2 -17 5 -14 12 -16 12 -8 0 6 -11 4
-13 -9 -8 -10 4 -19 1 -22 -8 -4 -8 -11 -12 -18 -8 -6 3 -8 3 -4 -2 4 -4 2
-15 -5 -23 -10 -13 -9 -14 3 -7 12 7 13 6 3 -7 -7 -8 -10 -18 -6 -21 3 -4 1
-7 -5 -7 -6 0 -9 -9 -7 -20 2 -11 -1 -19 -8 -17 -6 1 -12 -2 -13 -8 -5 -31
-17 -54 -25 -49 -5 3 -9 -4 -9 -15 0 -12 -4 -21 -10 -21 -5 0 -10 -5 -10 -11
0 -6 -9 -24 -21 -40 -11 -16 -21 -37 -22 -48 -1 -12 -6 -17 -16 -13 -8 3 -12
1 -8 -5 4 -6 0 -16 -9 -23 -8 -7 -13 -19 -10 -26 3 -7 -2 -15 -10 -18 -9 -3
-12 -10 -9 -16 3 -6 -1 -13 -9 -16 -9 -3 -13 -10 -10 -15 3 -5 0 -9 -6 -9 -7
0 -9 -7 -6 -16 3 -8 2 -12 -4 -9 -11 7 -42 -49 -33 -59 4 -3 2 -6 -4 -6 -11 0
-38 -50 -34 -63 1 -5 -2 -6 -6 -4 -10 6 -34 -19 -26 -27 4 -3 -4 -18 -18 -33
-13 -14 -18 -23 -10 -18 7 4 3 -6 -10 -24 -12 -17 -26 -31 -31 -31 -4 0 -7 -3
-7 -7 3 -21 -3 -24 -18 -12 -11 10 -14 10 -9 2 5 -9 0 -13 -16 -14 -52 -3 -71
-7 -77 -15 -3 -5 -19 -9 -35 -9 -15 1 -31 -5 -33 -13 -5 -11 -7 -11 -14 0 -7
10 -9 11 -9 0 0 -7 -5 -10 -10 -7 -6 4 -18 1 -27 -7 -12 -9 -15 -9 -9 -1 5 9
2 11 -8 7 -9 -3 -16 -9 -16 -13 0 -3 -11 -7 -25 -8 -56 -5 -65 -8 -65 -15 0
-4 -5 -8 -11 -8 -5 0 -7 6 -3 13 6 9 5 9 -8 0 -8 -7 -19 -9 -23 -5 -5 4 -5 1
-1 -5 5 -10 -4 -13 -34 -13 -27 0 -39 -4 -34 -11 4 -8 1 -8 -12 -2 -23 11 -45
10 -63 -1 -9 -6 -12 -5 -8 2 5 6 -1 8 -14 5 -16 -4 -17 -8 -7 -14 10 -7 10 -9
-2 -9 -23 0 -21 -68 3 -81 9 -6 15 -14 12 -20 -4 -5 -1 -9 5 -9 6 0 8 -4 5
-10 -3 -5 -1 -10 4 -10 6 0 11 -5 11 -11 0 -5 -5 -7 -11 -3 -8 5 -8 1 0 -14 6
-12 16 -24 21 -27 6 -4 8 -15 5 -26 -4 -10 -3 -19 2 -19 5 0 10 -12 11 -26 1
-15 7 -33 13 -40 6 -7 8 -18 4 -24 -3 -5 -1 -10 5 -10 7 0 10 -7 7 -15 -4 -8
-2 -17 2 -19 7 -5 15 -31 22 -74 0 -4 6 -16 12 -27 6 -11 10 -24 9 -29 -2 -5
5 -18 15 -29 10 -11 12 -17 6 -13 -16 9 -18 -10 -3 -19 8 -5 7 -12 -2 -23 -10
-12 -10 -14 0 -8 8 5 11 1 9 -15 -2 -13 -9 -25 -15 -27 -7 -2 -10 -8 -6 -13 3
-5 1 -9 -4 -9 -5 0 -17 -16 -26 -35 -9 -19 -21 -35 -27 -35 -6 0 -7 -5 -4 -11
4 -5 -3 -19 -15 -29 -12 -10 -19 -23 -16 -28 3 -6 -1 -12 -9 -16 -8 -3 -15
-12 -15 -21 0 -8 -5 -15 -11 -15 -5 0 -7 -4 -4 -10 3 -5 1 -10 -5 -10 -6 0 -8
-4 -5 -10 3 -5 1 -10 -5 -10 -7 0 -10 -7 -6 -15 3 -8 0 -14 -7 -12 -7 1 -12
-5 -12 -13 0 -15 -7 -26 -57 -82 -30 -33 -35 -48 -17 -48 5 0 8 -4 4 -9 -3 -6
2 -14 11 -19 15 -8 17 -25 12 -76 -1 -8 -7 -12 -14 -9 -7 2 -11 -3 -11 -14 1
-10 -3 -17 -8 -16 -6 1 -12 -8 -12 -19 -1 -12 -7 -26 -14 -32 -9 -8 -10 -7 -4
3 5 9 4 12 -3 7 -6 -4 -9 -13 -6 -21 3 -7 -4 -23 -15 -34 -12 -12 -18 -21 -15
-21 4 0 1 -6 -5 -13 -6 -8 -8 -17 -4 -20 3 -4 1 -7 -6 -7 -11 0 -36 -47 -32
-63 1 -5 -3 -6 -7 -3 -5 3 -22 -5 -37 -18 -18 -16 -23 -26 -16 -31 9 -5 9 -10
0 -21 -9 -11 -9 -14 0 -14 7 0 10 -4 7 -8 -3 -5 9 -17 27 -27 40 -24 58 -41
50 -49 -4 -3 1 -6 10 -6 9 0 16 -3 16 -7 -3 -20 2 -34 11 -28 9 5 11 1 10 -20
0 -3 12 -17 26 -30 15 -14 23 -25 19 -25 -4 0 3 -9 16 -21 13 -12 23 -25 22
-30 -2 -5 2 -9 7 -9 6 0 10 -7 10 -15 0 -8 7 -15 15 -15 9 0 12 -6 8 -15 -3
-9 -2 -15 3 -13 5 2 10 -1 11 -5 1 -4 8 -14 15 -21 7 -7 22 -25 33 -41 11 -16
30 -39 41 -51 12 -13 19 -25 16 -28 -3 -3 0 -6 6 -6 7 0 12 -10 12 -22 0 -16
3 -19 8 -10 6 9 12 5 20 -13 13 -28 27 -47 55 -73 9 -9 17 -24 17 -34 0 -10 4
-18 8 -18 5 0 8 -14 7 -30 -1 -17 3 -34 8 -37 6 -4 7 -1 2 7 -5 9 -4 11 4 6 9
-6 9 -11 1 -21 -7 -9 -6 -16 4 -24 8 -6 12 -21 9 -31 -3 -12 0 -20 6 -20 7 0
9 -5 6 -10 -9 -15 5 -51 17 -44 6 4 5 -2 -1 -15 -10 -17 -9 -22 2 -27 9 -3 13
-13 10 -25 -3 -11 0 -19 7 -19 7 0 10 -8 7 -19 -3 -11 2 -30 11 -42 12 -18 12
-21 1 -14 -11 6 -12 5 -1 -6 6 -7 12 -23 12 -36 0 -13 4 -23 8 -23 4 0 9 -10
9 -22 3 -44 8 -63 21 -77 9 -9 10 -17 2 -26 -8 -10 -8 -15 1 -21 8 -5 9 -3 4
6 -5 8 -4 11 2 7 5 -3 9 -24 8 -46 -1 -22 1 -40 4 -39 18 2 21 -4 10 -23 -9
-17 -8 -20 3 -13 8 5 6 -3 -6 -20 -10 -16 -13 -26 -8 -22 11 6 36 -27 27 -36
-2 -2 5 -10 17 -17 16 -10 19 -10 13 1 -6 10 -5 10 5 1 9 -9 19 -9 33 -2 11 6
17 7 14 2 -4 -5 0 -10 8 -10 8 0 12 4 9 9 -3 4 0 8 5 8 6 0 11 -5 11 -11 0 -6
5 -7 13 -2 19 12 37 12 37 1 0 -7 5 -6 14 1 8 7 17 8 20 3 3 -5 18 -7 32 -4
20 4 25 2 19 -8 -6 -9 -3 -10 13 -1 14 7 23 8 27 1 9 -15 27 -12 19 3 -6 9 -4
9 7 0 17 -17 32 -17 23 0 -4 6 1 4 12 -5 14 -12 24 -14 37 -7 11 7 17 7 17 -1
0 -5 6 -10 13 -10 21 0 38 -45 24 -60 -8 -9 -9 -11 -1 -7 7 4 18 -1 25 -10 12
-14 12 -16 -1 -9 -11 6 -10 4 2 -9 12 -13 33 -19 72 -20 30 0 53 2 51 5 -2 4
2 7 10 7 8 0 15 -4 15 -8 0 -4 22 -7 50 -5 28 1 50 -1 50 -4 0 -9 42 -6 57 3
9 5 11 3 7 -6 -3 -8 1 -14 10 -14 8 0 12 5 9 11 -5 7 -2 7 8 0 8 -6 29 -11 47
-10 19 0 35 -2 37 -5 2 -3 22 -4 44 -3 23 1 41 -2 41 -8 0 -5 4 -7 9 -3 9 5
18 -3 73 -65 10 -11 14 -20 8 -20 -5 0 6 -16 26 -35 20 -20 32 -40 28 -47 -4
-7 -3 -8 4 -4 7 4 12 1 12 -8 0 -9 5 -16 10 -16 6 0 10 -4 10 -10 0 -15 33
-50 42 -44 4 3 5 -2 2 -10 -3 -9 -1 -16 5 -16 6 0 11 -7 11 -15 0 -8 5 -15 10
-15 6 0 10 -6 10 -14 0 -7 7 -19 15 -26 8 -7 12 -17 8 -23 -4 -6 0 -8 11 -4 9
4 14 3 11 -2 -3 -5 -1 -12 4 -15 4 -3 9 -17 9 -32 0 -14 6 -30 13 -35 8 -4 14
-14 14 -21 0 -21 58 -15 83 10 12 12 22 23 21 25 -2 9 15 37 23 37 5 0 6 -6 2
-12 -4 -8 -3 -10 2 -5 5 5 9 12 9 15 0 10 45 54 45 45 0 -5 5 0 11 10 6 9 14
15 20 12 5 -4 9 1 9 10 0 9 4 14 8 11 5 -3 15 4 22 15 8 10 20 19 27 19 7 0
18 9 25 20 7 11 18 20 25 20 7 0 13 5 13 11 0 5 5 7 12 3 8 -5 9 -2 5 9 -3 9
-3 16 1 15 15 -4 52 14 47 23 -4 5 -1 9 4 9 6 0 20 9 31 20 11 11 20 17 20 12
1 -4 8 4 16 18 11 18 14 20 10 5 -6 -19 -5 -19 7 -3 8 10 17 15 20 11 4 -3 7
0 7 8 0 11 2 11 10 -1 5 -8 10 -10 10 -5 0 6 14 10 30 10 19 0 30 -5 30 -14 0
-11 4 -9 15 5 14 19 14 19 15 -1 0 -15 2 -17 9 -6 5 8 14 10 21 6 7 -4 42 -9
77 -10 40 -1 68 -7 73 -14 5 -10 9 -10 14 -2 4 6 13 8 19 4 17 -11 41 -10 49
2 5 6 8 5 8 -2 0 -7 5 -13 11 -13 5 0 7 6 4 13 -4 6 -1 5 7 -3 8 -10 29 -16
56 -15 23 0 42 -4 42 -8 0 -5 7 -4 15 3 8 7 15 8 15 3 0 -5 10 -9 23 -8 12 1
30 -2 39 -6 11 -6 18 -5 21 4 4 9 6 9 6 0 1 -7 8 -10 16 -7 8 4 23 0 32 -7 10
-8 14 -9 10 -2 -5 8 0 11 13 10 11 -1 20 -5 20 -10 0 -5 8 -3 17 4 14 12 16
12 8 0 -6 -11 -4 -13 7 -8 9 3 21 0 28 -6 10 -9 11 -9 6 3 -5 9 -2 9 7 -2 8
-10 16 -15 19 -13 3 3 11 -1 17 -9 11 -13 17 -13 46 1 19 9 32 20 29 25 -3 4
0 8 7 8 7 0 9 3 6 7 -4 3 -2 12 5 20 6 7 8 16 4 20 -3 3 -6 1 -6 -5 0 -7 -6
-12 -12 -12 -7 1 -3 9 9 19 12 10 23 25 25 32 2 7 9 20 16 28 7 7 11 20 8 27
-3 8 -2 13 2 13 21 -3 32 3 32 19 0 10 9 28 20 40 11 12 20 26 20 32 0 6 6 8
13 4 7 -5 7 -2 -2 10 -8 9 -10 16 -5 15 19 -3 34 1 34 11 0 13 50 91 70 108
13 12 13 13 0 7 -8 -4 -6 1 5 10 11 9 21 20 21 25 1 6 2 15 3 21 0 5 6 7 11 4
6 -3 10 1 10 9 0 9 5 16 10 16 6 0 10 7 10 16 0 8 5 12 10 9 6 -3 10 1 10 9 0
9 5 16 12 16 6 0 8 3 5 6 -4 4 3 15 15 25 11 11 17 19 13 19 -4 0 1 8 12 17
11 10 22 26 26 36 4 10 12 15 17 12 6 -4 10 -3 9 2 -3 20 2 33 14 30 6 -1 11
6 11 15 -1 10 1 17 5 16 19 -2 31 3 26 12 -3 6 -1 10 6 10 6 0 22 11 35 25 13
14 28 25 34 25 6 0 9 4 6 8 -3 5 9 19 26 33 17 13 46 38 65 56 18 18 33 30 33
28 0 -3 16 11 36 31 20 19 43 33 50 30 8 -3 14 -1 14 4 0 6 8 10 18 10 14 0
15 2 2 10 -13 8 -13 10 1 10 12 0 15 7 11 25 -2 14 -9 25 -14 25 -5 0 -7 4 -3
9 3 6 -3 14 -12 20 -14 8 -15 10 -3 11 11 0 12 2 3 8 -14 9 -24 82 -11 82 5 0
6 5 3 10 -3 6 1 13 10 16 9 4 14 12 11 19 -5 15 27 49 37 39 3 -4 9 5 13 20 3
14 11 26 16 26 6 0 7 7 4 16 -3 8 -2 13 2 10 10 -6 43 30 35 38 -3 3 2 8 11
12 9 3 16 15 16 26 0 10 4 17 9 14 5 -3 12 5 15 19 4 16 11 22 20 19 11 -4 13
0 9 14 -3 14 1 22 16 27 11 3 20 12 18 18 -1 7 4 11 11 9 8 -1 11 2 6 9 -4 7
3 20 17 31 13 11 17 17 9 13 -8 -4 -3 4 13 19 29 28 35 42 15 30 -7 -4 -4 2 7
13 11 11 23 19 28 16 6 -4 11 20 8 40 -1 5 2 6 6 4 5 -3 14 1 21 9 10 11 10
14 0 14 -9 0 -9 3 2 9 8 6 19 7 25 3 5 -3 3 3 -5 13 -14 17 -13 18 3 12 12 -5
17 -3 15 5 -5 13 26 48 42 48 9 0 14 14 11 32 0 4 6 5 14 2 9 -4 15 0 15 10 0
9 5 16 10 16 6 0 10 11 10 23 0 28 -35 73 -45 58 -4 -7 -11 -7 -19 2 -8 6 -12
15 -9 20 2 4 -1 7 -7 7 -6 0 -9 4 -5 9 3 6 -2 14 -11 19 -13 7 -14 11 -4 17 9
6 6 11 -11 21 -15 8 -18 13 -9 14 11 0 12 2 3 8 -7 5 -14 20 -15 35 -1 14 -4
24 -7 22 -7 -8 -36 39 -36 58 0 10 -7 24 -16 30 -9 7 -15 24 -15 39 1 21 -1
25 -12 16 -7 -6 -12 -7 -11 -2 5 26 -2 45 -13 38 -8 -5 -7 0 2 11 9 11 10 16
3 11 -9 -5 -13 0 -13 13 0 12 -5 21 -11 21 -6 0 -9 9 -6 20 3 11 2 18 -3 15
-4 -3 -11 6 -14 20 -4 14 -11 25 -16 25 -6 0 -10 9 -10 20 0 11 -5 20 -11 20
-5 0 -7 5 -4 10 3 6 3 10 -2 10 -4 0 -13 11 -20 25 -6 14 -7 23 -2 19 5 -3 6
2 3 10 -3 9 -10 14 -14 11 -4 -3 -10 2 -13 9 -3 8 -1 17 6 20 7 2 4 5 -5 5
-16 1 -23 17 -19 48 1 6 -4 15 -10 19 -8 5 -9 3 -4 -6 5 -8 4 -11 -3 -6 -6 3
-9 15 -7 26 2 11 0 20 -5 20 -4 0 -11 7 -14 16 -3 8 -2 12 4 9 6 -3 10 -1 10
4 0 6 -4 11 -8 11 -4 0 -7 16 -7 35 1 19 -3 35 -9 35 -6 0 -4 5 4 10 12 8 12
10 1 10 -11 0 -11 3 0 17 12 14 12 16 0 8 -11 -6 -13 -4 -8 7 3 9 0 21 -6 27
-8 8 -8 11 1 11 8 0 9 7 1 27 -7 19 -6 28 2 33 8 6 7 9 -2 13 -11 4 -11 6 -1
6 7 1 10 6 7 11 -3 6 -3 10 2 10 16 0 8 55 -11 78 -15 16 -22 19 -28 10 -6
-10 -8 -10 -8 0 0 6 -7 12 -15 12 -8 0 -15 6 -15 13 0 8 -4 7 -10 -3 -8 -13
-10 -13 -10 2 0 9 -5 20 -12 24 -7 5 -8 3 -3 -6 5 -9 4 -11 -3 -6 -7 4 -12 14
-12 22 0 8 -7 14 -15 14 -9 0 -20 10 -25 23 -5 12 -9 19 -9 15 -1 -4 -17 9
-37 28 -20 18 -40 31 -45 28 -5 -3 -6 3 -2 12 5 13 2 16 -8 12 -10 -4 -15 3
-16 24 -2 19 2 26 9 22 7 -4 8 -3 4 4 -4 6 -13 9 -21 5 -13 -5 -20 13 -16 40
0 4 -6 7 -14 7 -9 0 -12 6 -9 15 4 9 -1 18 -11 21 -13 5 -14 9 -3 15 10 7 9 9
-5 9 -10 0 -16 3 -14 8 8 12 -12 54 -23 47 -6 -4 -7 1 -3 11 4 11 -1 22 -12
30 -10 8 -16 17 -12 20 4 4 -1 13 -11 21 -9 8 -11 12 -5 8 9 -4 11 -1 7 9 -3
9 -10 13 -15 11 -12 -8 -23 41 -13 57 6 10 5 11 -8 1 -15 -13 -28 -8 -28 11 0
6 5 4 11 -4 9 -13 10 -13 5 0 -3 8 -9 23 -12 33 -4 9 -11 17 -16 17 -6 0 -8 9
-5 20 3 11 2 18 -3 15 -4 -3 -16 7 -25 21 -9 15 -13 24 -8 21 5 -4 10 0 10 8
0 8 -4 12 -9 9 -4 -3 -8 2 -8 11 0 9 -4 14 -8 11 -4 -2 -9 4 -9 15 -1 10 -9
26 -17 35 -9 9 -14 20 -11 25 4 5 1 9 -4 9 -6 0 -11 8 -11 17 0 9 -8 25 -17
36 -13 15 -14 18 -3 12 13 -8 13 -7 1 9 -15 18 -23 56 -12 56 3 0 6 11 6 24 0
16 -4 22 -14 18 -9 -3 -12 -1 -7 6 3 6 1 14 -5 18 -8 4 -9 3 -5 -4 4 -7 1 -12
-9 -12 -9 0 -14 4 -11 9 5 8 -15 8 -34 1 -3 -1 -8 -2 -12 -1 -5 0 -8 -3 -8 -9
0 -5 -7 -6 -17 -3 -12 5 -14 3 -8 -8 7 -11 6 -12 -6 -3 -8 6 -27 11 -44 10
-16 -1 -38 2 -49 7 -10 5 -16 5 -13 0 3 -4 -25 -7 -61 -5 -148 6 -269 5 -280
-2 -8 -5 -10 -2 -5 10 4 12 3 15 -5 10 -21 -13 -62 -17 -62 -6 0 6 -9 6 -25 0
-17 -7 -25 -6 -25 1 0 8 -5 7 -15 -1 -8 -7 -15 -8 -15 -3 0 6 -21 9 -47 8 -28
-2 -51 2 -55 9 -5 7 -8 8 -8 0 0 -6 -13 -10 -30 -9 -16 1 -30 -2 -30 -7 0 -5
-7 -2 -16 6 -8 9 -22 16 -30 16 -8 0 -14 6 -14 13 0 7 -11 25 -25 40 -14 15
-21 27 -15 27 17 0 -12 27 -30 27 -8 0 -21 -5 -29 -11 -11 -8 -13 -8 -7 2 8
13 7 13 -12 5z"/>
</g>
</svg>
