<?xml version="1.0" encoding="UTF-8" standalone="no"?>
<!DOCTYPE svg PUBLIC "-//W3C//DTD SVG 1.1//EN" "http://www.w3.org/Graphics/SVG/1.1/DTD/svg11.dtd">
<svg xmlns="http://www.w3.org/2000/svg" xmlns:xlink="http://www.w3.org/1999/xlink" version="1.1" width="336pt" height="320pt" viewBox="0 0 336 320">
<g enable-background="new">
<path transform="matrix(.1,0,0,-.1,0,320)" stroke-width="30" stroke-linecap="round" stroke-linejoin="round" fill="none" stroke="#000000" d="M 1166.14 2302.47 L 1166.14 2302.47 "/>
<path transform="matrix(.1,0,0,-.1,0,320)" d="M 848.789 2742.83 L 1166.35 3178.41 L 1680 3007.32 L 2185.67 3184.09 L 2506.28 2746.34 L 3016.9 2585.05 L 3025.07 2037.98 L 3344.48 1620.19 L 3028.44 1171.75 L 3030.53 636.453 L 2517.04 446.129 L 2197.28 16.6836 L 1680 180.711 L 1162.72 16.6836 L 842.957 446.129 L 329.473 636.453 L 331.563 1171.75 L 15.5195 1620.19 L 334.93 2037.98 L 335.121 2579.37 " fill="#ffff00"/>
<path transform="matrix(.1,0,0,-.1,0,320)" d="M 1680 3007.32 L 334.93 2037.98 L 1166.35 3178.41 L 1166.14 2302.47 L 335.121 2579.37 " fill="#ff0000"/>
<path transform="matrix(.1,0,0,-.1,0,320)" d="M 334.93 2037.98 L 842.957 446.129 L 15.5195 1620.19 L 846.332 1312.35 L 329.473 636.453 " fill="#ff0000"/>
<path transform="matrix(.1,0,0,-.1,0,320)" d="M 842.957 446.129 L 2517.04 446.129 L 1162.72 16.6836 L 1680 711.551 L 2197.28 16.6836 " fill="#ff0000"/>
<path transform="matrix(.1,0,0,-.1,0,320)" d="M 2517.04 446.129 L 3025.07 2037.98 L 3030.53 636.453 L 2513.67 1312.35 L 3344.48 1620.19 " fill="#ff0000"/>
<path transform="matrix(.1,0,0,-.1,0,320)" d="M 3025.07 2037.98 L 1680 3007.32 L 3016.9 2585.05 L 2198.79 2298.96 L 2185.67 3184.09 " fill="#ff0000"/>
<path transform="matrix(.1,0,0,-.1,0,320)" d="M 1680 711.551 L 2198.79 2298.96 L 846.332 1312.35 L 2513.67 1312.35 L 1166.14 2302.47 " fill="#ff0000"/>
<path transform="matrix(.1,0,0,-.1,0,320)" stroke-width="3" stroke-linecap="round" stroke-linejoin="round" fill="none" stroke="#000000" d="M 848.789 2742.83 L 1166.35 3178.41 L 1680 3007.32 L 2185.67 3184.09 L 2506.28 2746.34 L 3016.9 2585.05 L 3025.07 2037.98 L 3344.48 1620.19 L 3028.44 1171.75 L 3030.53 636.453 L 2517.04 446.129 L 2197.28 16.6836 L 1680 180.711 L 1162.72 16.6836 L 842.957 446.129 L 329.473 636.453 L 331.563 1171.75 L 15.5195 1620.19 L 334.93 2037.98 L 335.121 2579.37 Z "/>
<path transform="matrix(.1,0,0,-.1,0,320)" stroke-width="3" stroke-linecap="round" stroke-linejoin="round" fill="none" stroke="#000000" d="M 1683 1922.7 L 1683.08 2257.28 L 1166.22 2637.06 "/>
<path transform="matrix(.1,0,0,-.1,0,320)" stroke-width="3" stroke-linecap="round" stroke-linejoin="round" fill="none" stroke="#000000" d="M 1683.08 2257.28 L 2193.78 2637.06 "/>
<path transform="matrix(.1,0,0,-.1,0,320)" stroke-width="3" stroke-linecap="round" stroke-linejoin="round" fill="none" stroke="#000000" d="M 1999.76 1689.95 L 2312.25 1799.23 L 2511.29 2408.24 "/>
<path transform="matrix(.1,0,0,-.1,0,320)" stroke-width="3" stroke-linecap="round" stroke-linejoin="round" fill="none" stroke="#000000" d="M 2312.25 1799.23 L 2831.02 1429.93 "/>
<path transform="matrix(.1,0,0,-.1,0,320)" stroke-width="3" stroke-linecap="round" stroke-linejoin="round" fill="none" stroke="#000000" d="M 1876.35 1312.35 L 2073.93 1046.93 L 1877.59 446.129 "/>
<path transform="matrix(.1,0,0,-.1,0,320)" stroke-width="3" stroke-linecap="round" stroke-linejoin="round" fill="none" stroke="#000000" d="M 2073.93 1046.93 L 2711.09 1054.17 "/>
<path transform="matrix(.1,0,0,-.1,0,320)" stroke-width="3" stroke-linecap="round" stroke-linejoin="round" fill="none" stroke="#000000" d="M 1485.95 1312.35 L 1288.52 1054.17 L 648.906 1054.17 "/>
<path transform="matrix(.1,0,0,-.1,0,320)" stroke-width="3" stroke-linecap="round" stroke-linejoin="round" fill="none" stroke="#000000" d="M 1288.52 1054.17 L 1482.41 446.129 "/>
<path transform="matrix(.1,0,0,-.1,0,320)" stroke-width="3" stroke-linecap="round" stroke-linejoin="round" fill="none" stroke="#000000" d="M 1363.97 1689.97 L 1046.55 1795.74 L 848.711 2408.24 "/>
<path transform="matrix(.1,0,0,-.1,0,320)" stroke-width="3" stroke-linecap="round" stroke-linejoin="round" fill="none" stroke="#000000" d="M 1046.55 1795.74 L 528.984 1429.93 "/>
<path transform="matrix(.1,0,0,-.1,0,320)" stroke-width="16" stroke-linecap="round" stroke-linejoin="round" fill="none" stroke="#000000" d="M 1680 3007.32 L 334.93 2037.98 L 1166.35 3178.41 L 1166.14 2302.47 L 335.121 2579.37 Z "/>
<path transform="matrix(.1,0,0,-.1,0,320)" stroke-width="16" stroke-linecap="round" stroke-linejoin="round" fill="none" stroke="#000000" d="M 334.93 2037.98 L 842.957 446.129 L 15.5195 1620.19 L 846.332 1312.35 L 329.473 636.453 Z "/>
<path transform="matrix(.1,0,0,-.1,0,320)" stroke-width="16" stroke-linecap="round" stroke-linejoin="round" fill="none" stroke="#000000" d="M 842.957 446.129 L 2517.04 446.129 L 1162.72 16.6836 L 1680 711.551 L 2197.28 16.6836 Z "/>
<path transform="matrix(.1,0,0,-.1,0,320)" stroke-width="16" stroke-linecap="round" stroke-linejoin="round" fill="none" stroke="#000000" d="M 2517.04 446.129 L 3025.07 2037.98 L 3030.53 636.453 L 2513.67 1312.35 L 3344.48 1620.19 Z "/>
<path transform="matrix(.1,0,0,-.1,0,320)" stroke-width="16" stroke-linecap="round" stroke-linejoin="round" fill="none" stroke="#000000" d="M 3025.07 2037.98 L 1680 3007.32 L 3016.9 2585.05 L 2198.79 2298.96 L 2185.67 3184.09 Z "/>
<path transform="matrix(.1,0,0,-.1,0,320)" stroke-width="16" stroke-linecap="round" stroke-linejoin="round" fill="none" stroke="#000000" d="M 1680 711.551 L 2198.79 2298.96 L 846.332 1312.35 L 2513.67 1312.35 L 1166.14 2302.47 Z "/>
</g>
</svg>
